<svg width="350" height="350" viewBox="0 0 350 350" fill="none" xmlns="http://www.w3.org/2000/svg">
<path d="M0.00212097 115.404C0.00212097 51.6682 44.7853 0 100.028 0H249.562C304.805 0 349.588 51.6682 349.588 115.404V234.596C349.588 298.332 304.805 350 249.562 350H100.028C44.7852 350 0.00212097 298.332 0.00212097 234.596V115.404Z" fill="white"/>
<path d="M75.2708 278.201C70.2917 278.201 64.2012 277.175 56.9994 275.123C49.8864 273.174 44.774 270.917 41.662 268.353L54.4654 231.731C56.6882 235.527 59.5333 238.553 63.0009 240.81C66.5574 242.964 70.1139 244.041 73.6703 244.041C78.1159 244.041 81.8947 243.426 85.0066 242.195C88.1185 240.861 90.7414 237.938 92.8753 233.424C95.0092 228.808 96.0761 221.986 96.0761 212.959V59.0869H130.752V209.266C130.752 230.295 126.44 247.067 117.815 259.582C109.191 271.995 95.0092 278.201 75.2708 278.201Z" fill="#485C41"/>
<path d="M272.243 273.585L224.497 196.033V273.585H190.622V59.0869H242.369C286.469 59.0869 308.519 81.8599 308.519 127.406C308.519 137.562 307.097 147.563 304.251 157.411C301.406 167.156 296.738 175.824 290.248 183.416C283.846 191.007 275.622 196.238 265.575 199.11L313.587 273.585H272.243ZM238.634 176.645C246.192 176.645 252.638 174.594 257.973 170.49C263.396 166.284 267.486 160.745 270.243 153.872C272.999 146.897 274.377 139.306 274.377 131.099C274.377 116.943 271.532 106.531 265.841 99.863C260.24 93.1952 250.904 89.8613 237.834 89.8613H224.497V176.645H238.634Z" fill="#485C41"/>
</svg>
