<svg width="348" height="301" viewBox="0 0 348 301" fill="none" xmlns="http://www.w3.org/2000/svg">
<path d="M1 99C1 44.3238 45.3238 0 100 0H248C302.676 0 347 44.3238 347 99V201.249C347 255.926 302.676 300.249 248 300.249H100C45.3238 300.249 1 255.926 1 201.249V99Z" fill="white"/>
<path d="M174 0L347.205 300H0.794922L174 0Z" fill="#F7CACA"/>
<path d="M67.0841 267.96C62.1561 267.96 56.1281 267.08 49.0001 265.32C41.9601 263.648 36.9001 261.712 33.8201 259.512L46.4921 228.096C48.6921 231.352 51.5081 233.948 54.9401 235.884C58.4601 237.732 61.9801 238.656 65.5001 238.656C69.9001 238.656 73.6401 238.128 76.7201 237.072C79.8001 235.928 82.3961 233.42 84.5081 229.548C86.6201 225.588 87.6761 219.736 87.6761 211.992V79.992H121.996V208.824C121.996 226.864 117.728 241.252 109.192 251.988C100.656 262.636 86.6201 267.96 67.0841 267.96Z" fill="#485C41"/>
<path d="M262.925 264L215.669 197.472V264H182.141V79.992H233.357C277.005 79.992 298.829 99.528 298.829 138.6C298.829 147.312 297.421 155.892 294.605 164.34C291.789 172.7 287.169 180.136 280.745 186.648C274.409 193.16 266.269 197.648 256.325 200.112L303.845 264H262.925ZM229.661 180.84C237.141 180.84 243.521 179.08 248.801 175.56C254.169 171.952 258.217 167.2 260.945 161.304C263.673 155.32 265.037 148.808 265.037 141.768C265.037 129.624 262.221 120.692 256.589 114.972C251.045 109.252 241.805 106.392 228.869 106.392H215.669V180.84H229.661Z" fill="#485C41"/>
</svg>